<svg xmlns="http://www.w3.org/2000/svg" width="48" height="38.77" viewBox="0 0 48 38.77">
  <defs>
    <style>
      .cls-1 {
        fill: #c8c9cc;
      }
    </style>
  </defs>
  <g id="上传_1_" data-name="上传 (1)" transform="translate(0 0)">
    <path id="路径_230" data-name="路径 230" class="cls-1" d="M38.407,112.882a14.4,14.4,0,1,0-28.8,0,9.616,9.616,0,0,0,0,19.231h4.8v-3.846h-4.8a5.769,5.769,0,0,1,0-11.539h3.84v-3.846a10.56,10.56,0,1,1,21.12,0v3.846h3.84a5.769,5.769,0,0,1,0,11.539h-4.8v3.846h4.8a9.616,9.616,0,0,0,0-19.231Z" transform="translate(-0.007 -98.459)"/>
    <path id="路径_231" data-name="路径 231" class="cls-1" d="M300.321,410.22l-10.264,11.041,2.989,2.783,5.139-5.53v15.61h4.275V418.516l5.139,5.528,2.989-2.783Z" transform="translate(-276.352 -395.354)"/>
  </g>
</svg>
